<svg xmlns="http://www.w3.org/2000/svg" viewBox="0 0 100 93.316">
  <defs>
    <style>
      .cls-1 {
        fill: #423e38;
      }

      .cls-2 {
        fill: #fff279;
      }

      .cls-3 {
        fill: #2d5872;
      }

      .cls-4 {
        fill: #ffa077;
      }

      .cls-5 {
        fill: #ccdfed;
      }

      .cls-6 {
        fill: #8bd2f1;
      }

      .cls-7 {
        fill: #dbf0ff;
      }

      .cls-8 {
        fill: #45748c;
      }

      .cls-9 {
        fill: #6ab8e0;
      }
    </style>
  </defs>
  <g id="cctv_selected" transform="translate(-223 -6055)">
    <path id="Path_285" data-name="Path 285" class="cls-1" d="M51.925,235.171H20.482a3.6,3.6,0,1,1,0-7.2H48.606L51.3,194.688a3.6,3.6,0,1,1,7.173.579l-2.956,36.6A3.6,3.6,0,0,1,51.925,235.171Z" transform="translate(209.414 5897.657)"/>
    <path id="Path_286" data-name="Path 286" class="cls-2" d="M176.953,184.773l-5.066-1.889a7.372,7.372,0,0,1-4.332-9.483l1.242-3.331,18.882,7.039-1.242,3.331A7.372,7.372,0,0,1,176.953,184.773Z" transform="translate(88.547 5914.805)"/>
    <g id="Group_46" data-name="Group 46" transform="translate(257.222 6084.875)">
      <path id="Path_287" data-name="Path 287" class="cls-3" d="M176.58,170.533l-1.243-.463-.12.323Z" transform="translate(-175.217 -170.07)"/>
      <path id="Path_288" data-name="Path 288" class="cls-4" d="M218.459,191.824s.954,4.427,0,6.987-6.769,1.163-6.769,1.163l1.878,1.341c3.815,1.422,9.711.446,11.133-3.369l1.242-3.331Z" transform="translate(-206.942 -187.575)"/>
    </g>
    <path id="Path_289" data-name="Path 289" class="cls-5" d="M427.615,180.857l-10.662-3.975,4.947-13.27,10.662,3.975a2.287,2.287,0,0,1,1.344,2.941l-3.35,8.985A2.287,2.287,0,0,1,427.615,180.857Z" transform="translate(-112.517 5920.001)"/>
    <path id="Path_290" data-name="Path 290" class="cls-6" d="M322.787,153.864l-22.149-8.257,6.277-16.837,24.1,8.984-5.55,14.887A2.081,2.081,0,0,1,322.787,153.864Z" transform="translate(-18.92 5948.038)"/>
    <path id="Path_291" data-name="Path 291" class="cls-7" d="M149.447,56.906l10.419,3.884a1.674,1.674,0,0,0,2.153-.984l3.342-8.965a1.674,1.674,0,0,0-.984-2.153L100.683,24.942a5.078,5.078,0,0,0-6.532,2.984l-6.411,17.2a5.078,5.078,0,0,0,2.984,6.532l41.135,15.335a2.811,2.811,0,0,0,2.683-.4l12.221-9.29A2.811,2.811,0,0,1,149.447,56.906Z" transform="translate(152.655 6031.846)"/>
    <path id="Path_292" data-name="Path 292" class="cls-6" d="M149.447,120.622a2.811,2.811,0,0,0-2.683.4l-12.221,9.29a2.811,2.811,0,0,1-2.683.4L90.725,115.37a5.059,5.059,0,0,1-1.861-1.212l-1.123,3.013a5.078,5.078,0,0,0,2.984,6.532l41.135,15.335a2.811,2.811,0,0,0,2.683-.4l12.221-9.29a2.811,2.811,0,0,1,2.683-.4l10.419,3.884a1.674,1.674,0,0,0,2.153-.984l2.127-5.7Z" transform="translate(152.655 5959.796)"/>
    <path id="Path_293" data-name="Path 293" class="cls-8" d="M12.731,346.619H8.669A1.169,1.169,0,0,1,7.5,345.45V313.62a1.169,1.169,0,0,1,1.169-1.169h4.063a5.63,5.63,0,0,1,5.63,5.63v22.907A5.63,5.63,0,0,1,12.731,346.619Z" transform="translate(216.965 5800.232)"/>
    <path id="Path_294" data-name="Path 294" class="cls-2" d="M24.892,312.451h-2.28v34.168h2.28a5.63,5.63,0,0,0,5.63-5.63V318.081A5.63,5.63,0,0,0,24.892,312.451Z" transform="translate(204.804 5800.232)"/>
    <ellipse id="Ellipse_10" data-name="Ellipse 10" class="cls-9" cx="8.384" cy="8.384" rx="8.384" ry="8.384" transform="translate(251.921 6119.179)"/>
    <path id="Path_295" data-name="Path 295" class="cls-3" d="M174.7,345.705a8.346,8.346,0,0,0-3.955.991,8.385,8.385,0,0,1,0,14.786,8.384,8.384,0,1,0,3.955-15.776Z" transform="translate(85.602 5773.473)"/>
    <path id="Path_296" data-name="Path 296" d="M144.662,111.965l-18.638-6.948A1.465,1.465,0,0,0,125,107.761l18.638,6.948a1.465,1.465,0,1,0,1.023-2.745Z" transform="translate(123.181 5967.228)"/>
    <path id="Path_297" data-name="Path 297" d="M213.591,107.838l-4.158-1.55a1.465,1.465,0,1,0-1.023,2.745l4.158,1.55a1.465,1.465,0,1,0,1.023-2.745Z" transform="translate(56.062 5966.204)"/>
    <path id="Path_298" data-name="Path 298" d="M134.271,81.392l8.093,3.017a1.465,1.465,0,1,0,1.023-2.745l-8.093-3.017a1.465,1.465,0,0,0-1.023,2.745Z" transform="translate(115.721 5988.446)"/>
    <path id="Path_299" data-name="Path 299" d="M164.027,59.4l-18.638-6.948a1.465,1.465,0,1,0-1.023,2.745L163,62.141a1.465,1.465,0,1,0,1.023-2.745Z" transform="translate(107.598 6009.528)"/>
    <path id="Path_300" data-name="Path 300" d="M99.659,50.283a3.727,3.727,0,0,0-2.1-1.956l-2.013-.751.845-2.266a3.143,3.143,0,0,0-1.845-4.037L30.849,17.526a6.542,6.542,0,0,0-8.416,3.845l-6.411,17.2a6.543,6.543,0,0,0,3.845,8.416l11.459,4.272a8.869,8.869,0,0,0,4.414,9.375L34.148,80.346a9.9,9.9,0,0,0-6.089,5.932H13.791V80.425a7.1,7.1,0,0,0-7.1-7.1H2.633A2.636,2.636,0,0,0,0,75.963v31.831a2.636,2.636,0,0,0,2.633,2.633H6.7a7.1,7.1,0,0,0,7.1-7.1V96.4H30.125a9.841,9.841,0,1,0,14-13.824l.54-6.684a1.465,1.465,0,1,0-2.92-.236l-.407,5.032a9.786,9.786,0,0,0-4.035-.868c-.059,0-.117,0-.175,0l1.457-18.036,3.4,1.268q.376.14.756.244L42.3,68.837a1.465,1.465,0,0,0,1.342,1.578c.04,0,.08,0,.12,0a1.465,1.465,0,0,0,1.458-1.347l.442-5.478a8.877,8.877,0,0,0,7.051-4.368L61,62.318a4.256,4.256,0,0,0,4.082-.6l1.786-1.357,13.486,5.028A3.545,3.545,0,0,0,84.917,63.3l.474-1.271,6.2,2.31a3.751,3.751,0,0,0,4.825-2.2l3.35-8.985A3.728,3.728,0,0,0,99.659,50.283Zm-88.8,53.049A4.17,4.17,0,0,1,6.7,107.5H2.93V76.259H6.7a4.17,4.17,0,0,1,4.165,4.165Zm2.93-9.857V89.208H27.468c-.007.154-.012.309-.012.465a9.8,9.8,0,0,0,.764,3.8ZM37.3,82.754a6.919,6.919,0,1,1-6.919,6.919A6.927,6.927,0,0,1,37.3,82.754Zm5.707-22.438-5.065-1.888h0l-.121-.049-.008,0A5.924,5.924,0,0,1,34.131,52.3l15.774,5.88A5.924,5.924,0,0,1,43.011,60.316Zm42.011-5.683v0l-2.85,7.645a.616.616,0,0,1-.793.362l-11.75-4.38,7.676-5.835a1.339,1.339,0,0,1,1.285-.19l6.432,2.4ZM79.614,49.49a4.255,4.255,0,0,0-4.081.6l-12.221,9.29a1.341,1.341,0,0,1-1.285.19h0L20.891,44.237a3.613,3.613,0,0,1-2.123-4.648l6.411-17.2a3.607,3.607,0,0,1,4.648-2.123L93.521,44.017a.21.21,0,0,1,.123.269L90.3,53.251a.209.209,0,0,1-.269.123h0Zm17.4,2.638-3.35,8.985a.823.823,0,0,1-1.057.483l-6.2-2.31,1.353-3.63,1.242.463a3.139,3.139,0,0,0,4.037-1.845l1.474-3.954,2.013.751a.822.822,0,0,1,.483,1.057Z" transform="translate(223 6037.889)"/>
  </g>
</svg>
