<svg xmlns="http://www.w3.org/2000/svg" viewBox="0 0 97.249 100">
  <defs>
    <style>
      .cls-1 {
        fill: #eee;
      }

      .cls-2 {
        fill: #e5e5e5;
      }

      .cls-3 {
        fill: #ced3d5;
      }

      .cls-4 {
        fill: #efefef;
      }

      .cls-5 {
        fill: #edebeb;
      }

      .cls-6 {
        fill: #ebebeb;
      }

      .cls-7 {
        fill: #1d1d1f;
      }

      .cls-8 {
        fill: #fff;
      }
    </style>
  </defs>
  <g id="singing_normal" transform="translate(-171 -6769)">
    <circle id="Ellipse_11" data-name="Ellipse 11" class="cls-1" cx="21.002" cy="21.002" r="21.002" transform="translate(172.465 6770.465)"/>
    <rect id="Rectangle_752" data-name="Rectangle 752" class="cls-1" width="25.441" height="7.9" transform="translate(222.897 6802.907) rotate(135)"/>
    <path id="Path_301" data-name="Path 301" class="cls-2" d="M204.24,182.8l-14.4,14.4,33.64,30.359L234.6,216.436Z" transform="translate(16.862 6621.907)"/>
    <rect id="Rectangle_753" data-name="Rectangle 753" class="cls-3" width="6.301" height="13.98" transform="translate(235.014 6824.655) rotate(135)"/>
    <rect id="Rectangle_754" data-name="Rectangle 754" class="cls-4" width="10.467" height="8.369" transform="translate(255.521 6846.12) rotate(135)"/>
    <rect id="Rectangle_755" data-name="Rectangle 755" class="cls-1" width="6.301" height="13.98" transform="translate(231.107 6824.653) rotate(135)"/>
    <g id="Group_47" data-name="Group 47" transform="translate(224.544 6778.275)">
      <rect id="Rectangle_756" data-name="Rectangle 756" class="cls-5" width="10.928" height="5.01" transform="translate(7.221)"/>
      <circle id="Ellipse_12" data-name="Ellipse 12" class="cls-1" cx="3.61" cy="3.61" r="3.61" transform="translate(0 9.429)"/>
      <circle id="Ellipse_13" data-name="Ellipse 13" class="cls-4" cx="3.61" cy="3.61" r="3.61" transform="translate(10.928 9.429)"/>
      <rect id="Rectangle_757" data-name="Rectangle 757" class="cls-6" width="9.314" height="5.01" transform="translate(27.231 23.639)"/>
      <circle id="Ellipse_14" data-name="Ellipse 14" class="cls-6" cx="3.61" cy="3.61" r="3.61" transform="translate(20.012 33.07)"/>
    </g>
    <path id="Path_302" data-name="Path 302" class="cls-3" d="M20.4,28.5A21,21,0,0,1,38.476,7.7a21,21,0,1,0-2.93,41.8,21.16,21.16,0,0,0,2.93-.2A21,21,0,0,1,20.4,28.5Z" transform="translate(157.92 6762.966)"/>
    <path id="Path_303" data-name="Path 303" class="cls-3" d="M155.954,162.993l16.037-16.037L170.038,145l-17.99,17.99,5.586,5.586,1.953-1.953Z" transform="translate(47.273 6652.318)"/>
    <path id="Path_304" data-name="Path 304" class="cls-3" d="M195.7,197.194l11.319-11.319-2.779-3.08-14.4,14.4,33.64,30.359,2.779-2.779Z" transform="translate(16.862 6621.907)"/>
    <path id="Path_305" data-name="Path 305" class="cls-3" d="M375.5,371.949l5.449-5.449-1.953-1.953-7.4,7.4,5.918,5.918,1.953-1.953Z" transform="translate(-129.392 6475.654)"/>
    <path id="Path_306" data-name="Path 306" class="cls-3" d="M245.28,238.784l2.5-2.5-1.953-1.953-4.455,4.455,9.886,9.886,1.953-1.953Z" transform="translate(-24.606 6580.438)"/>
    <g id="Group_48" data-name="Group 48" transform="translate(224.545 6778.275)">
      <rect id="Rectangle_758" data-name="Rectangle 758" class="cls-3" width="3.32" height="5.011" transform="translate(7.221)"/>
      <path id="Path_307" data-name="Path 307" class="cls-3" d="M284.513,99.377a3.607,3.607,0,0,1,1.95-3.2,3.61,3.61,0,1,0,0,6.407A3.608,3.608,0,0,1,284.513,99.377Z" transform="translate(-281.193 -86.338)"/>
      <path id="Path_308" data-name="Path 308" class="cls-3" d="M340.463,99.377a3.607,3.607,0,0,1,1.95-3.2,3.61,3.61,0,1,0,0,6.407A3.608,3.608,0,0,1,340.463,99.377Z" transform="translate(-326.215 -86.338)"/>
      <rect id="Rectangle_759" data-name="Rectangle 759" class="cls-3" width="3.32" height="5.011" transform="translate(27.23 23.639)"/>
      <path id="Path_309" data-name="Path 309" class="cls-3" d="M386.966,220.415a3.607,3.607,0,0,1,1.95-3.2,3.61,3.61,0,1,0,0,6.407A3.608,3.608,0,0,1,386.966,220.415Z" transform="translate(-363.636 -183.736)"/>
    </g>
    <path id="Path_310" data-name="Path 310" class="cls-7" d="M99.652,181.622l-.769,2.827a17.213,17.213,0,0,0,12.048-1.123l-1.281-2.634A14.278,14.278,0,0,1,99.652,181.622Z" transform="translate(90.055 6623.6)"/>
    <g id="Group_49" data-name="Group 49" transform="translate(181.313 6774.278)">
      <path id="Path_311" data-name="Path 311" class="cls-8" d="M122.643,32.06a17.075,17.075,0,0,0-12.154-5.034,17.321,17.321,0,0,0-2.811.23l.477,2.891a14.388,14.388,0,0,1,2.334-.191,14.164,14.164,0,0,1,10.082,4.176Z" transform="translate(-98.336 -27.026)"/>
      <path id="Path_312" data-name="Path 312" class="cls-8" d="M61.917,46.455a14.371,14.371,0,0,1,2.042-1.7L62.3,42.341a17.327,17.327,0,0,0-2.459,2.043Z" transform="translate(-59.845 -39.35)"/>
      <path id="Path_313" data-name="Path 313" class="cls-8" d="M83.168,34.443a14.228,14.228,0,0,1,2.461-.987L84.8,30.647a17.17,17.17,0,0,0-2.969,1.19Z" transform="translate(-77.534 -29.94)"/>
    </g>
    <g id="Group_50" data-name="Group 50" transform="translate(192.91 6784.426)">
      <rect id="Rectangle_760" data-name="Rectangle 760" class="cls-7" width="2.93" height="2.93" transform="translate(5.523 4.143) rotate(-135)"/>
      <rect id="Rectangle_761" data-name="Rectangle 761" class="cls-7" width="2.93" height="2.93" transform="translate(2.072 3.454) rotate(45)"/>
    </g>
    <g id="Group_51" data-name="Group 51" transform="translate(204.293 6801.427)">
      <rect id="Rectangle_762" data-name="Rectangle 762" class="cls-8" width="2.93" height="7.813" transform="translate(2.072 14.5) rotate(-135)"/>
      <rect id="Rectangle_763" data-name="Rectangle 763" class="cls-8" width="2.93" height="2.93" transform="translate(12.428 4.143) rotate(-135)"/>
      <rect id="Rectangle_764" data-name="Rectangle 764" class="cls-8" width="2.93" height="2.93" transform="translate(8.975 7.595) rotate(-135)"/>
    </g>
    <g id="Group_52" data-name="Group 52" transform="translate(171 6769)">
      <path id="Path_314" data-name="Path 314" class="cls-7" d="M230.768,230.249l11.957,11.957,6.527-6.527-11.957-11.958Zm11.957,7.814-7.814-7.814,2.384-2.384,7.814,7.814Z" transform="translate(-187.072 -180.026)"/>
      <rect id="Rectangle_765" data-name="Rectangle 765" class="cls-7" width="2.93" height="2.93" transform="translate(69.739 71.808) rotate(-135)"/>
      <rect id="Rectangle_766" data-name="Rectangle 766" class="cls-7" width="2.93" height="2.93" transform="translate(62.832 60.76) rotate(45)"/>
      <rect id="Rectangle_767" data-name="Rectangle 767" class="cls-7" width="2.93" height="2.93" transform="translate(66.284 64.212) rotate(45)"/>
      <path id="Path_315" data-name="Path 315" class="cls-7" d="M103.29,94.173,89.936,80.819l3.7-3.7L87.719,71.2l1.806-1.806-14.441-16-2.175,1.963L85.485,69.291,76.336,78.44,44.873,50.047,57.092,37.828,70.947,53.18l2.175-1.963L59.166,35.754l1.847-1.847-7.657-7.657-2.185,2.185A22.476,22.476,0,0,0,35.313.756l-.754,2.831A19.537,19.537,0,1,1,16.779,37.27L29.645,24.4l-2.072-2.072L14.707,35.2A19.526,19.526,0,0,1,29.511,2.93a19.868,19.868,0,0,1,2.375.142L32.237.164A22.81,22.81,0,0,0,29.511,0,22.466,22.466,0,1,0,35.48,44.125l-2.185,2.185,7.657,7.657L42.8,52.121,76.439,82.48l1.806-1.806,5.918,5.918,3.7-3.7,13.354,13.354a.449.449,0,0,1,.146.328.49.49,0,0,1-.488.5H62.468a7.21,7.21,0,0,1-7.2-7.2V86.527A10.143,10.143,0,0,0,45.135,76.4H16.811v2.93H45.135a7.21,7.21,0,0,1,7.2,7.2v3.341A10.143,10.143,0,0,0,62.468,100h38.409a3.426,3.426,0,0,0,3.417-3.427A3.376,3.376,0,0,0,103.29,94.173ZM53.356,30.392l3.514,3.514L40.952,49.825l-3.514-3.514ZM80.317,78.6l5.33-5.33,3.846,3.846-5.33,5.33Z" transform="translate(-7.044)"/>
      <rect id="Rectangle_768" data-name="Rectangle 768" class="cls-7" width="2.93" height="2.93" transform="translate(0 76.396)"/>
      <rect id="Rectangle_769" data-name="Rectangle 769" class="cls-7" width="2.93" height="2.93" transform="translate(4.883 76.396)"/>
      <path id="Path_316" data-name="Path 316" class="cls-7" d="M278.768,59.564a5.081,5.081,0,0,0,5.075-5.075V47.925h8v1.967a5.074,5.074,0,1,0,2.93,4.6v-14.5H280.913v9.907a5.074,5.074,0,1,0-2.145,9.672Zm10.928-2.93a2.145,2.145,0,1,1,2.145-2.145A2.147,2.147,0,0,1,289.7,56.635Zm-5.853-13.72h8V45h-8Zm-5.075,9.43a2.145,2.145,0,1,1-2.145,2.145A2.147,2.147,0,0,1,278.768,52.345Z" transform="translate(-221.613 -32.175)"/>
      <path id="Path_317" data-name="Path 317" class="cls-7" d="M381.221,180.6a5.08,5.08,0,0,0,5.075-5.075v-6.564h9.314v-7.94H383.367v9.907a5.074,5.074,0,1,0-2.145,9.672Zm5.075-16.65h6.384v2.081H386.3Zm-5.075,9.43a2.145,2.145,0,1,1-2.145,2.145A2.147,2.147,0,0,1,381.221,173.384Z" transform="translate(-304.056 -129.575)"/>
    </g>
  </g>
</svg>
